<?xml version="1.0" encoding="utf-8"?>
<!-- Generator: Adobe Illustrator 19.0.0, SVG Export Plug-In . SVG Version: 6.00 Build 0)  -->
<svg version="1.1" id="Layer_1" xmlns="http://www.w3.org/2000/svg" xmlns:xlink="http://www.w3.org/1999/xlink" x="0px" y="0px"
	 viewBox="0 0 442 90" style="enable-background:new 0 0 442 90;" xml:space="preserve">
<style type="text/css">
	.st0{fill:#00568E;}
	.st1{fill:#FFFFFF;}
	.st2{fill:#A1BED4;}
</style>
<rect x="0" y="0" class="st0" width="442" height="90"/>
<g>
	<g>
		<g>
			<polyline class="st1" points="328.3,29.2 328.3,32.7 332.6,34.7 332.6,60.7 328.5,62.6 328.5,66.2 349.5,66.2 349.5,62.6 
				345.4,60.7 345.4,26.7 344.3,26.7 328.3,29.2 			"/>
			<path class="st1" d="M371.8,58.7V48.3l-3,0.3c-3,0.3-5.4,2.3-5.4,5.9c0,4.2,2.3,5.6,4.8,5.6C369.6,60.2,371.1,59.5,371.8,58.7
				 M362.7,31.9l-2.7,7.8h-6.6V29.7c3.6-1.1,7.9-2.9,14.7-2.9c10.3,0,16.4,3,16.4,11.7v22.4l4.1,1.9v2.9c-1.3,0.7-4.1,1.5-7.2,1.5
				c-4,0-7.6-1.3-8.2-5.4h-0.4c-1.7,3.4-6.2,5.5-11,5.5c-6.8,0-11.1-4.4-11.1-10.8c0-7.9,5.2-9.1,13.6-10.9l7.4-1.3v-5.1
				c0-4.9-1.5-7.4-6.4-7.4C364.7,31.7,363.5,31.8,362.7,31.9"/>
			<path class="st1" d="M389.6,62.6l4.1-1.9v-26l-4.3-2v-3.5l15.8-2.5h1.1v5.1h0.4c3.4-3.1,8.1-5.1,13.3-5.1c6.5,0,9.7,3.2,9.7,10.3
				v23.7l4.1,1.9v3.5h-21v-3.5l4.1-1.9V39.9c0-3.9-1.7-5.4-5.2-5.4c-1.9,0-3.7,0.3-5.3,1v25.2l4.1,1.9v3.5h-20.9V62.6"/>
			<path class="st1" d="M310.5,18.9l-4.3-2v-3.5l16-2.5h1.1v48.6l4.1,2.2v3.3l-15.2,1.7l-1.1,0v-4h-0.4c-1.6,2-4.9,4.2-9.7,4.2
				c-7,0-15.4-4.4-15.4-19.2c0-15.5,8.5-21.1,18.7-21.1c2.1,0,4.6,0.5,6.2,1.6V18.9 M310.5,59.4v-26c-1-0.8-2-1.4-4.3-1.4
				c-4,0-7.1,3.6-7.1,14.5c0,9.5,2.4,13.6,7.5,13.6C308.6,60.1,309.7,59.7,310.5,59.4"/>
			<path class="st1" d="M152,78.9c-7,0-9.4-2.5-9.4-5.1c0-1.9,0.5-3.1,1.5-4.3h13.5c3.2,0,4.6,0.9,4.6,2.9
				C162.2,76.4,160,78.9,152,78.9 M152.1,31.2c2.8,0,4.6,1.2,4.6,8.9c0,7.7-1.8,8.5-4.6,8.5c-2.8,0-4.5-0.6-4.5-8.5
				C147.6,32.2,149.3,31.2,152.1,31.2z M160.5,57.8h-13.7c-1.5,0-2.7-1.1-2.7-2.5c0-1,0.7-2.1,1.7-2.9c2.1,0.6,3.8,0.8,6.3,0.8
				c9.9,0,16.7-4.5,16.7-12.9c0-3.8-1.6-5.9-4-8.1v-0.3l6.4,2.3l0.9,0v-7.7h-0.7l-9.8,1.9H161c-2.4-0.9-5.8-1.8-8.8-1.8
				c-9.9,0-16.8,4.9-16.8,13.3c0,5.1,2.6,8.9,6.4,11v0.4c-2.2,1.6-6.4,4.7-6.4,8.8c0,3,2,5.9,6.1,6.8v0.4c-4.3,0.9-9.2,2.3-9.2,7.3
				c0,5.1,7.4,8.9,19.5,8.9c15,0,21.5-5.7,21.5-14.9C173.2,61.3,169,57.8,160.5,57.8z"/>
			<path class="st2" d="M27.6,55.5V34.2h-5.9v-5.8l5.9-0.8v-7.3l12.7-1.8v9h8.4v6.6h-8.4v20.2c0,3.8,1.1,5.7,4.8,5.7
				c1.3,0,3.1-0.2,4.1-0.3v5c-2.1,1.2-6.4,2.2-10.4,2.2C31.1,66.9,27.6,63.6,27.6,55.5"/>
			<path class="st2" d="M112.3,31c3.2,0,4.9,0.6,4.9,11.8l-10.7,0.6C106.8,33.2,108.3,31,112.3,31 M106.7,48h22.9
				c0-16.1-5.5-21.3-17.1-21.3c-11.4,0-19,7.4-19,20c0,13.1,6.8,20.3,20,20.3c7.1,0,12.8-3.1,14.6-5.6v-3.8
				c-2.7,0.8-5.4,1.3-10.3,1.3C111,59.1,107.4,55.5,106.7,48"/>
			<path class="st1" d="M256.7,29.2v3.5l4.3,2v26l-4.1,1.9v3.5H279v-3.5l-5.2-1.9l0-21.3c2.2-1,5.1-1.4,8.5-1.4
				c1.1,0,2.5,0.1,3.2,0.4V27.2c-0.4-0.1-1.3-0.2-1.9-0.2c-4.2,0-7.7,2.7-9.9,7.9h-0.4v-8.1h-1.1L256.7,29.2"/>
			<path class="st1" d="M239.1,58.7V48.3l-3,0.3c-3,0.3-5.4,2.3-5.4,5.9c0,4.2,2.3,5.6,4.8,5.6C236.9,60.2,238.4,59.5,239.1,58.7
				 M230.1,31.9l-2.7,7.8h-6.6V29.7c3.6-1.1,7.9-2.9,14.7-2.9c10.3,0,16.4,3,16.4,11.7v22.4l4.1,1.9v2.9c-1.3,0.7-4.1,1.5-7.2,1.5
				c-4,0-7.6-1.3-8.2-5.4h-0.4c-1.7,3.4-6.2,5.5-11,5.5c-6.8,0-11.1-4.4-11.1-10.8c0-7.9,5.2-9.1,13.6-10.9l7.4-1.3v-5.1
				c0-4.9-1.5-7.4-6.4-7.4C232,31.7,230.8,31.8,230.1,31.9"/>
			<path class="st1" d="M177.3,34.7l-4.3-2v-3.5l16-2.5h1.1v27.1c0,4.4,2.1,5.2,5.4,5.2c2.4,0,3.3-0.4,4.6-0.9V34.7l-4.3-2v-3.5
				l16-2.5h1.1v32.9l4.3,2.2v3.3l-15.5,1.7l-1.1,0l0-5.1h-0.4c-2.5,3.1-6.5,5.3-11.7,5.3c-7.7,0-11-5.5-11-12.2V34.7"/>
			<path class="st2" d="M50.2,62.6l4.1-1.9V18.9l-4.3-2v-3.5l15.8-2.5H67v20.9h0.4c3.4-3.1,8.1-5.1,13.3-5.1c6.5,0,9.7,3.2,9.7,10.3
				v23.7l4.1,1.9v3.5h-21v-3.5l4.1-1.9V39.9c0-3.9-1.7-5.4-5.2-5.4c-1.9,0-3.7,0.3-5.3,1v25.2l4.1,1.9v3.5H50.2V62.6"/>
			<path class="st1" d="M338.7,10.9c3.8,0,6.8,3.1,6.8,6.8c0,3.8-3.1,6.8-6.8,6.8c-3.8,0-6.8-3.1-6.8-6.8
				C331.9,13.9,335,10.9,338.7,10.9"/>
		</g>
	</g>
</g>
</svg>
