<?xml version="1.0" encoding="utf-8"?>
<!-- Generator: Adobe Illustrator 18.1.0, SVG Export Plug-In . SVG Version: 6.00 Build 0)  -->
<!DOCTYPE svg PUBLIC "-//W3C//DTD SVG 1.1 Tiny//EN" "http://www.w3.org/Graphics/SVG/1.1/DTD/svg11-tiny.dtd">
<svg version="1.1" baseProfile="tiny" id="Capa_1" xmlns="http://www.w3.org/2000/svg" xmlns:xlink="http://www.w3.org/1999/xlink"
	 x="0px" y="0px" width="595.3px" height="86.7px" viewBox="0 0 595.3 86.7" xml:space="preserve">
<g>
	<path fill="#0C0D0A" d="M88.9,62.8H75.7l6.2-29.2c0.4-1.6,0.6-2.9,0.4-3.5c0-1.4-0.8-2.5-2.3-2.7c-0.6-0.2-2.1-0.2-4.1-0.2H65.5
		c-3.1,0-4.9,0.2-5.8,0.8c-1,0.8-2.1,2.7-2.7,5.8L50.8,63H37.7l7-32.1c0.2-1.9-0.4-3.1-1.9-3.5c-0.6-0.2-2.1-0.4-4.3-0.4H28
		c-3.1,0-4.9,0.2-6,0.8c-1,0.8-2.1,2.7-2.7,5.8l-6.2,29.2H0l9.9-47.1h13.2l-1.2,6c2.5-3.9,5.8-6,9.9-6h13.8c4.5,0,7.6,0.4,9.5,1
		c2.1,0.8,3.3,2.5,3.7,4.5c0.8-2.1,2.5-3.5,5.1-4.5c1.9-0.8,3.7-1.2,5.8-1.2h13.8c4.9,0,8.4,0.4,10.3,1.4c2.1,1,3.1,3.1,3.1,6
		c0,1.6-0.2,3.5-0.8,6L88.9,62.8L88.9,62.8z"/>
	<path fill="#0C0D0A" d="M139.4,44.9l2.5-11.3c0.2-1.6,0.4-2.7,0.4-3.5c0-1.4-0.8-2.5-2.3-2.7c-0.6-0.2-2.1-0.2-4.1-0.2h-10.3
		c-3.1,0-4.9,0.2-5.8,0.8c-1,0.8-1.9,2.7-2.7,5.8l-2.5,11.3c-0.2,1.6-0.4,2.7-0.4,3.5c0,1.4,0.8,2.5,2.3,2.7
		c0.6,0.2,1.9,0.2,3.9,0.2h10.5c3.1,0,4.9-0.2,6-1C137.9,49.8,138.7,48,139.4,44.9L139.4,44.9z M151.5,49.4
		c-1.2,5.6-2.9,9.1-5.4,10.9c-2.5,1.6-6.6,2.5-12.8,2.5H113c-4.9,0-8.4-0.4-10.3-1.4c-1.9-1-2.9-3.1-2.9-6c0-1.6,0.2-3.5,0.8-6
		L105,29c1.2-5.6,2.9-9.1,5.4-10.9c2.5-1.6,6.6-2.5,12.8-2.5h20.4c4.9,0,8.4,0.4,10.3,1.4c2.1,1,3.1,3.1,3.1,6c0,1.6-0.2,3.5-0.8,6
		L151.5,49.4L151.5,49.4z"/>
	<path fill="#0C0D0A" d="M182.8,62.8h-10.5c-4.9,0-8.4-0.4-10.3-1.4c-1.9-1-2.9-3.1-2.9-6c0-1.6,0.2-3.5,0.8-6L170.2,0h13.2
		l-3.3,15.6h12.8L190.6,27H178l-3.7,17.9c-0.2,1.6-0.4,2.7-0.4,3.5c0,1.4,0.8,2.5,2.3,2.7c0.6,0.2,1.9,0.2,3.9,0.2h5.1L182.8,62.8
		L182.8,62.8z"/>
	<path fill="#0C0D0A" d="M232.6,44.9l2.5-11.3c0.2-1.6,0.4-2.7,0.4-3.5c0-1.4-0.8-2.5-2.3-2.7c-0.6-0.2-2.1-0.2-4.1-0.2h-10.5
		c-3.1,0-4.9,0.2-5.8,0.8c-1,0.8-1.9,2.7-2.7,5.8l-2.5,11.3c-0.2,1.6-0.4,2.7-0.4,3.5c0,1.4,0.8,2.5,2.3,2.7
		c0.6,0.2,1.9,0.2,3.9,0.2H224c3.1,0,4.9-0.2,6-1C231.2,49.8,232,48,232.6,44.9L232.6,44.9z M244.7,49.4c-1.2,5.6-2.9,9.1-5.4,10.9
		c-2.5,1.6-6.8,2.5-12.8,2.5h-20.4c-4.9,0-8.4-0.4-10.3-1.4c-1.9-1-2.9-3.1-2.9-6c0-1.6,0.2-3.5,0.8-6l4.3-20.4
		c1.2-5.6,2.9-9.1,5.4-10.9c2.1-1.6,6.4-2.5,12.6-2.5h20.4c4.9,0,8.4,0.4,10.3,1.4c2.1,1,3.1,3.1,3.1,6c0,1.6-0.2,3.5-0.8,6
		L244.7,49.4L244.7,49.4z"/>
	<path fill="#0C0D0A" d="M297,73.3c-1.2,5.6-2.9,9.3-5.4,10.9c-2.5,1.6-6.6,2.5-12.8,2.5h-32.1l2.3-11.3h27.2c2.9,0,4.9-0.2,6-1
		c1-0.6,1.9-2.5,2.5-5.6l8.9-41.6h-15.8c-3.1,0-4.9,0.2-6,0.8c-1,0.6-1.9,2.7-2.7,5.8l-2.3,11.3c-0.4,1.6-0.6,2.9-0.6,3.7
		c0,1.4,0.8,2.5,2.3,2.7c0.6,0.2,2.1,0.2,4.1,0.2h11.1L281.4,63h-16.1c-4.9,0-8.4-0.4-10.3-1.4c-2.1-1-3.1-3.1-3.1-6
		c0-1.4,0.2-3.5,0.8-6l4.3-20.4c1.2-5.6,2.9-9.1,5.4-10.9c2.5-1.6,6.8-2.5,13-2.5h34L297,73.3L297,73.3z"/>
	<path fill="#0C0D0A" d="M360,49.6c-1.2,5.6-2.9,9.3-5.4,10.9c-2.5,1.6-6.6,2.5-12.8,2.5h-16.1l2.5-11.3h11.1c3.1,0,4.9-0.4,6-1
		c1-0.6,1.9-2.5,2.5-5.6l2.3-11.3c0.4-1.6,0.6-2.9,0.6-3.7c0-1.4-0.8-2.5-2.3-2.7c-0.6-0.2-2.1-0.2-4.1-0.2h-15.8l-12.1,59.1h-13.2
		l14.4-70.4h34c4.9,0,8.4,0.4,10.3,1.4c2.1,1,3.1,3.1,3.1,6c0,1.4-0.2,3.5-0.8,6L360,49.6L360,49.6z"/>
	<polygon fill="#0C0D0A" points="379.4,62.8 366.2,62.8 368.4,52.1 381.6,52.1 	"/>
	<path fill="#0C0D0A" d="M431.2,62.8h-27.6c-4.9,0-8.4-0.4-10.3-1.4c-1.9-1-2.9-3.1-2.9-6c0-1.6,0.2-3.5,0.8-6l4.3-20.4
		c1.2-5.6,2.9-9.1,5.1-10.9c2.5-1.6,6.6-2.5,12.8-2.5h27.6L438.6,27h-22.4c-3.1,0-4.9,0.2-5.8,0.8c-1,0.8-2.1,2.7-2.7,5.8l-2.5,11.3
		c-0.2,1.6-0.4,2.7-0.4,3.5c0,1.4,0.8,2.5,2.3,2.7c0.6,0.2,1.9,0.2,3.9,0.2h22.4L431.2,62.8L431.2,62.8z"/>
	<path fill="#0C0D0A" d="M480.6,44.9l2.5-11.3c0.2-1.6,0.4-2.7,0.4-3.5c0-1.4-0.8-2.5-2.3-2.7c-0.6-0.2-2.1-0.2-4.1-0.2h-10.5
		c-3.1,0-4.9,0.2-5.8,0.8c-1,0.8-1.9,2.7-2.7,5.8l-2.5,11.3c-0.2,1.6-0.4,2.7-0.4,3.5c0,1.4,0.8,2.5,2.3,2.7
		c0.6,0.2,1.9,0.2,3.9,0.2H472c3.1,0,4.9-0.2,6-1C479.2,49.8,480,48,480.6,44.9L480.6,44.9z M493,49.4c-1.2,5.6-2.9,9.1-5.4,10.9
		c-2.5,1.6-6.6,2.5-12.8,2.5h-20.4c-4.9,0-8.4-0.4-10.3-1.4c-1.9-1-2.9-3.1-2.9-6c0-1.6,0.2-3.5,0.8-6l4.3-20.4
		c1.2-5.6,2.9-9.1,5.4-10.9c2.5-1.6,6.6-2.5,12.8-2.5H485c4.9,0,8.4,0.4,10.3,1.4c2.1,1,3.1,3.1,3.1,6c0,1.6-0.2,3.5-0.8,6L493,49.4
		L493,49.4z"/>
	<path fill="#0C0D0A" d="M587.5,62.8h-13.2l6.2-29.2c0.4-1.6,0.6-2.9,0.4-3.5c0-1.4-0.8-2.5-2.3-2.7c-0.6-0.2-2.1-0.2-4.1-0.2H564
		c-3.1,0-4.9,0.2-5.8,0.8c-1,0.8-2.1,2.7-2.7,5.8L549.4,63h-13.2l6.6-31.9c0.2-1.9-0.4-3.1-1.9-3.5c-0.6-0.2-2.1-0.4-4.3-0.4h-10.5
		c-3.1,0-4.9,0.2-6,0.8c-1,0.8-2.1,2.7-2.7,5.8L511.3,63h-13.2l10.3-47.3h13.2l-1.2,6c2.5-3.9,5.8-6,9.9-6H544c4.5,0,7.6,0.4,9.5,1
		c2.1,0.8,3.3,2.5,3.7,4.5c0.8-2.1,2.5-3.5,5.1-4.5c1.9-0.8,3.7-1.2,5.8-1.2h13.8c4.9,0,8.4,0.4,10.3,1.4c2.1,1,3.1,3.1,3.1,6
		c0,1.6-0.2,3.5-0.8,6L587.5,62.8L587.5,62.8z"/>
</g>
</svg>
