<?xml version="1.0" encoding="UTF-8" standalone="no"?>
<!-- Created with Inkscape (http://www.inkscape.org/) -->

<svg
   xmlns:dc="http://purl.org/dc/elements/1.1/"
   xmlns:cc="http://creativecommons.org/ns#"
   xmlns:rdf="http://www.w3.org/1999/02/22-rdf-syntax-ns#"
   xmlns:svg="http://www.w3.org/2000/svg"
   xmlns="http://www.w3.org/2000/svg"
   version="1.1"
   width="400"
   height="230"
   id="svg3085">
  <defs
     id="defs3087" />
  <metadata
     id="metadata3090">
    <rdf:RDF>
      <cc:Work
         rdf:about="">
        <dc:format>image/svg+xml</dc:format>
        <dc:type
           rdf:resource="http://purl.org/dc/dcmitype/StillImage" />
        <dc:title></dc:title>
      </cc:Work>
    </rdf:RDF>
  </metadata>
  <g
     transform="translate(0,-822.36218)"
     id="layer1">
    <g
       transform="matrix(5.8851435,0,0,5.7571246,-455.39692,809.11119)"
       id="g15"
       style="fill-rule:evenodd">
      <path
         d="m 94.3284,19.5121 -16.5735,0 7.10486,-13.3078 c 0.958929,-1.7962 3.21308,-3.26573 5.00918,-3.26573 l 13.3078,0 -8.8483,16.5735 z m 0,0 12.9812,0 -6.93054,12.9811 -12.9812,0 6.93054,-12.9811 z m 22.1252,0 -9.14397,0 4.60087,-8.61772 c 0.61,-1.14267 2.1011,-2.07753 3.31347,-2.07753 l 9.14397,0 -4.60087,8.61772 c -0.61,1.14257 -2.1011,2.07753 -3.31347,2.07753 z m 12.2904,-16.6969 4.86094,0 -2.58172,4.83587 c -0.34241,0.641191 -1.14979,1.16574 -1.79429,1.16574 l -4.86094,0 2.58182,-4.83587 C 127.29212,3.339749 128.0995,2.8152 128.744,2.8152 z m -26.4906,39.082 -6.89484,0 5.02061,-9.40404 9.07567,0 -3.81425,7.14438 c -0.66356,1.24287 -2.18775,2.25967 -3.38719,2.25967 z"
         id="_102059528"
         style="fill:#1f1a17" />
      <path
         d="m 120.697,21.24 c 0.73457,0 1.2538,0.286244 1.49812,0.747405 0.25184,0.475001 0.21393,1.13395 -0.17482,1.86199 l -2.25786,4.22908 c -0.38864,0.728048 -1.05431,1.38699 -1.81335,1.86199 -0.73677,0.46116 -1.56161,0.747405 -2.29617,0.747405 -0.73456,0 -1.2537,-0.286244 -1.49812,-0.747405 -0.25184,-0.475001 -0.21383,-1.13395 0.17482,-1.86199 l 2.25796,-4.22908 c 0.38865,-0.728048 1.05431,-1.38699 1.81325,-1.86199 C 119.1377,21.526245 119.96244,21.24 120.697,21.24 z m -0.51341,2.11143 c -0.0765,-0.144426 -0.24573,-0.234191 -0.48885,-0.234191 -0.24311,0 -0.508,0.08976 -0.73878,0.234191 -0.20871,0.130585 -0.38924,0.307106 -0.49114,0.497969 l -2.25786,4.22908 c -0.10191,0.190863 -0.10983,0.367384 -0.0406,0.497969 0.0766,0.144526 0.24572,0.234191 0.48884,0.234191 0.24311,0 0.508,-0.08967 0.73888,-0.234191 0.20861,-0.130585 0.38915,-0.307106 0.49105,-0.497969 l 2.25796,-4.22908 c 0.1018,-0.190863 0.10982,-0.367384 0.0405,-0.497969 z M 130.80149,21.24 c 0.73456,0 1.2537,0.286244 1.49812,0.747405 0.25184,0.475001 0.21383,1.13395 -0.17492,1.86199 l -2.25786,4.22908 c -0.38865,0.728048 -1.05421,1.38699 -1.81325,1.86199 -0.73687,0.46116 -1.56161,0.747405 -2.29617,0.747405 -0.73457,0 -1.2538,-0.286244 -1.49812,-0.747405 -0.25194,-0.475001 -0.21383,-1.13395 0.17482,-1.86199 l 2.25786,-4.22908 c 0.38874,-0.728048 1.05431,-1.38699 1.81335,-1.86199 0.73677,-0.46116 1.56161,-0.747405 2.29617,-0.747405 z m -0.51342,2.11143 c -0.0766,-0.144426 -0.24573,-0.234191 -0.48884,-0.234191 -0.24312,0 -0.508,0.08976 -0.73888,0.234191 -0.20862,0.130585 -0.38925,0.307106 -0.49105,0.497969 l -2.25796,4.22908 c -0.1018,0.190863 -0.10982,0.367384 -0.0405,0.497969 0.0765,0.144526 0.24572,0.234191 0.48884,0.234191 0.24312,0 0.508,-0.08967 0.73878,-0.234191 0.20872,-0.130585 0.38925,-0.307106 0.49115,-0.497969 l 2.25786,-4.22908 c 0.1019,-0.190863 0.10982,-0.367384 0.0406,-0.497969 z m 5.65137,1.62479 0.60167,-1.12682 c 0.10191,-0.190863 0.10983,-0.367384 0.0406,-0.497969 -0.0766,-0.144426 -0.24572,-0.234191 -0.48884,-0.234191 -0.24311,0 -0.508,0.08976 -0.73888,0.234191 -0.20861,0.130585 -0.38925,0.307106 -0.49115,0.497969 l -2.25776,4.22908 c -0.1019,0.190863 -0.10992,0.367384 -0.0406,0.497969 0.0765,0.144526 0.24573,0.234191 0.48885,0.234191 0.24311,0 0.50799,-0.08967 0.73877,-0.234191 0.20872,-0.130585 0.38925,-0.307106 0.49115,-0.497969 l 0.2696,-0.50499 -0.84991,0 1.00236,-1.87734 1.78848,0 0.93867,0 -0.50118,0.938669 -0.77067,1.44366 c -0.38875,0.728048 -1.05431,1.38699 -1.81335,1.86199 -0.73687,0.46116 -1.56161,0.747405 -2.29617,0.747405 -0.73457,0 -1.2538,-0.286244 -1.49812,-0.747405 -0.25184,-0.475001 -0.21383,-1.13395 0.17482,-1.86199 l 2.25786,-4.22908 c 0.38874,-0.728048 1.05421,-1.38689 1.81335,-1.86199 0.73677,-0.46116 1.56161,-0.747405 2.29617,-0.747405 0.73456,0 1.2537,0.286244 1.49812,0.747405 0.25184,0.475102 0.21383,1.13395 -0.17492,1.86199 l -0.60158,1.12682 -1.87734,0 z m -0.48443,5.71165 3.65097,-6.83847 c 0.38875,-0.728048 1.05431,-1.38689 1.81335,-1.86199 0.73687,-0.46116 1.56161,-0.747405 2.29617,-0.747405 0.73457,0 1.2537,0.286244 1.49812,0.747405 0.25184,0.475102 0.21383,1.13405 -0.17482,1.86199 l -0.62684,1.17406 c -0.38865,0.727947 -1.05421,1.38689 -1.81325,1.86189 -0.73688,0.46116 -1.56171,0.747505 -2.29627,0.747505 l -0.83908,0 -1.00446,1.88145 c -0.32666,0.612005 -1.42661,1.17356 -2.03861,1.17356 l -0.46527,0 z m 5.52831,-6.83847 -1.0177,1.90622 0.83908,0 c 0.24311,0 0.50809,-0.08976 0.73888,-0.234291 0.20871,-0.130485 0.38924,-0.307106 0.49114,-0.497869 l 0.62675,-1.17406 c 0.1019,-0.190863 0.10993,-0.367384 0.0406,-0.497969 -0.0765,-0.144426 -0.24572,-0.234191 -0.48884,-0.234191 -0.24312,0 -0.508,0.08976 -0.73878,0.234191 -0.20871,0.130585 -0.38925,0.307106 -0.49115,0.497969 z m -18.4247,6.83486 c -0.18695,0.0028 0.0152,0.0044 -0.10882,0.0044 -0.73076,0 -1.3908,-0.121859 -1.78938,-0.467379 -0.47259,-0.409608 -0.5753,-1.06945 -0.0462,-2.09077 l 0.004,-0.0074 0.0196,-0.03731 3e-4,-0.0073 3.91144,-7.32651 c 0.39336,-0.736673 1.31207,-0.935861 1.7968,-0.935861 l 0.58022,0 -0.76025,1.424 1.4235,0 -1.00226,1.87724 -1.4235,0 -2.64871,4.96113 -0.004,0 -0.0118,0.02267 0,0 c -0.1363,0.263076 -0.12417,0.420541 -0.0248,0.506795 0.17352,0.150343 0.54321,0.2034 0.97699,0.2034 0.18775,0 -0.0398,0.0047 0.0829,0.0029 l -0.97638,1.87002 z m -19.0812,0.0036 3.78176,-7.0834 c 0.35174,-0.658944 0.95171,-1.2554 1.63472,-1.68537 0.66556,-0.418936 1.40916,-0.679103 2.06991,-0.679103 l 3.63011,0 c 0.66065,0 1.12652,0.260167 1.34467,0.679103 0.22396,0.429968 0.18705,1.02643 -0.16469,1.68537 l -3.15521,5.90983 c -0.32676,0.611905 -1.42661,1.17356 -2.03861,1.17356 l -0.46527,0 3.78176,-7.0834 c 0.0669,-0.12527 0.0723,-0.241914 0.0271,-0.32867 -0.0508,-0.09779 -0.16569,-0.158568 -0.33198,-0.158568 l -0.87638,0 -3.41527,6.39707 c -0.32677,0.611905 -1.42661,1.17356 -2.03861,1.17356 l -0.46528,0 4.04182,-7.57063 -0.87638,0 c -0.16629,0 -0.34592,0.06078 -0.50128,0.158568 -0.13781,0.08676 -0.25696,0.2034 -0.32385,0.32867 l -3.15511,5.90983 c -0.32677,0.611905 -1.42661,1.17356 -2.03861,1.17356 l -0.46528,0 z"
         id="_102009232"
         style="fill:#da251d;fill-rule:nonzero" />
    </g>
  </g>
</svg>
